<svg id="visual" viewBox="0 0 900 600" width="900" height="600" xmlns="http://www.w3.org/2000/svg" xmlns:xlink="http://www.w3.org/1999/xlink" version="1.1"><path d="M854 600L836 550C818 500 782 400 780.5 300C779 200 812 100 828.5 50L845 0L900 0L900 50C900 100 900 200 900 300C900 400 900 500 900 550L900 600Z" fill="#6198ff"></path><path d="M737 600L722 550C707 500 677 400 680 300C683 200 719 100 737 50L755 0L846 0L829.5 50C813 100 780 200 781.5 300C783 400 819 500 837 550L855 600Z" fill="#4385ff"></path><path d="M638 600L632 550C626 500 614 400 627.5 300C641 200 680 100 699.5 50L719 0L756 0L738 50C720 100 684 200 681 300C678 400 708 500 723 550L738 600Z" fill="#2071ff"></path><path d="M332 600L309.5 550C287 500 242 400 261.5 300C281 200 365 100 407 50L449 0L720 0L700.5 50C681 100 642 200 628.5 300C615 400 627 500 633 550L639 600Z" fill="#0061f1"></path><path d="M134 600L125 550C116 500 98 400 131 300C164 200 248 100 290 50L332 0L450 0L408 50C366 100 282 200 262.5 300C243 400 288 500 310.5 550L333 600Z" fill="#0056d6"></path><path d="M0 600L0 550C0 500 0 400 0 300C0 200 0 100 0 50L0 0L333 0L291 50C249 100 165 200 132 300C99 400 117 500 126 550L135 600Z" fill="#004cbb"></path></svg>