<?xml version="1.0" encoding="UTF-8"?>
<svg width="700pt" height="700pt" version="1.1" viewBox="0 0 700 700" xmlns="http://www.w3.org/2000/svg" xmlns:xlink="http://www.w3.org/1999/xlink">
 <defs>
  <symbol id="m" overflow="visible">
   <path d="m29.312-1.75c-1.5117 0.78125-3.0898 1.3711-4.7344 1.7656-1.6367 0.40625-3.3398 0.60938-5.1094 0.60938-5.3125 0-9.5273-1.4844-12.641-4.4531-3.1055-2.9688-4.6562-7-4.6562-12.094s1.5508-9.125 4.6562-12.094c3.1133-2.9688 7.3281-4.4531 12.641-4.4531 1.7695 0 3.4727 0.19922 5.1094 0.59375 1.6445 0.39844 3.2227 0.99219 4.7344 1.7812v6.5938c-1.5312-1.0391-3.0391-1.8008-4.5156-2.2812-1.4805-0.48828-3.0391-0.73438-4.6719-0.73438-2.9375 0-5.2461 0.94531-6.9219 2.8281-1.6797 1.875-2.5156 4.4648-2.5156 7.7656 0 3.293 0.83594 5.8828 2.5156 7.7656 1.6758 1.875 3.9844 2.8125 6.9219 2.8125 1.6328 0 3.1914-0.23828 4.6719-0.71875 1.4766-0.48828 2.9844-1.2539 4.5156-2.2969z"/>
  </symbol>
  <symbol id="h" overflow="visible">
   <path d="m21.453-17.406c-0.67969-0.3125-1.3516-0.53906-2.0156-0.6875-0.65625-0.15625-1.3203-0.23438-1.9844-0.23438-1.9688 0-3.4844 0.63281-4.5469 1.8906-1.0547 1.2617-1.5781 3.0703-1.5781 5.4219v11.016h-7.6562v-23.922h7.6562v3.9219c0.97656-1.5625 2.1016-2.7031 3.375-3.4219 1.2812-0.71875 2.8125-1.0781 4.5938-1.0781 0.25 0 0.52344 0.011719 0.82812 0.03125 0.30078 0.023438 0.73438 0.070312 1.2969 0.14062z"/>
  </symbol>
  <symbol id="c" overflow="visible">
   <path d="m27.562-12.031v2.1875h-17.891c0.1875 1.793 0.83203 3.1367 1.9375 4.0312 1.1133 0.89844 2.6719 1.3438 4.6719 1.3438 1.6016 0 3.25-0.23438 4.9375-0.70312 1.6875-0.47656 3.4219-1.2031 5.2031-2.1719v5.8906c-1.8047 0.6875-3.6094 1.2031-5.4219 1.5469-1.8125 0.35156-3.6211 0.53125-5.4219 0.53125-4.3359 0-7.7031-1.0977-10.109-3.2969-2.3984-2.207-3.5938-5.2969-3.5938-9.2656 0-3.9062 1.1758-6.9727 3.5312-9.2031 2.3633-2.2383 5.6094-3.3594 9.7344-3.3594 3.7578 0 6.7695 1.1367 9.0312 3.4062 2.2578 2.2617 3.3906 5.2812 3.3906 9.0625zm-7.8594-2.5312c0-1.457-0.42969-2.6289-1.2812-3.5156-0.84375-0.89453-1.9492-1.3438-3.3125-1.3438-1.4922 0-2.6992 0.41797-3.625 1.25-0.91797 0.83594-1.4922 2.0391-1.7188 3.6094z"/>
  </symbol>
  <symbol id="b" overflow="visible">
   <path d="m14.391-10.766c-1.5938 0-2.793 0.27344-3.5938 0.8125-0.80469 0.54297-1.2031 1.3398-1.2031 2.3906 0 0.96875 0.32031 1.7305 0.96875 2.2812 0.64453 0.54297 1.5469 0.8125 2.7031 0.8125 1.4375 0 2.6445-0.51562 3.625-1.5469 0.98828-1.0312 1.4844-2.3203 1.4844-3.875v-0.875zm11.688-2.8906v13.656h-7.7031v-3.5469c-1.0312 1.4492-2.1875 2.5078-3.4688 3.1719s-2.8398 1-4.6719 1c-2.4805 0-4.4961-0.72266-6.0469-2.1719-1.543-1.4453-2.3125-3.3203-2.3125-5.625 0-2.8125 0.96094-4.8672 2.8906-6.1719 1.9375-1.3125 4.9688-1.9688 9.0938-1.9688h4.5156v-0.60938c0-1.207-0.48047-2.0938-1.4375-2.6562-0.94922-0.5625-2.4375-0.84375-4.4688-0.84375-1.6367 0-3.1562 0.16797-4.5625 0.5-1.4062 0.32422-2.7188 0.8125-3.9375 1.4688v-5.8281c1.6445-0.40625 3.2891-0.70703 4.9375-0.90625 1.6562-0.20703 3.3047-0.3125 4.9531-0.3125 4.3203 0 7.4375 0.85547 9.3438 2.5625 1.9141 1.6992 2.875 4.4609 2.875 8.2812z"/>
  </symbol>
  <symbol id="g" overflow="visible">
   <path d="m12.031-30.719v6.7969h7.875v5.4688h-7.875v10.141c0 1.1172 0.21875 1.8711 0.65625 2.2656 0.4375 0.38672 1.3125 0.57812 2.625 0.57812h3.9375v5.4688h-6.5625c-3.0234 0-5.1641-0.62891-6.4219-1.8906-1.2617-1.2578-1.8906-3.3984-1.8906-6.4219v-10.141h-3.7969v-5.4688h3.7969v-6.7969z"/>
  </symbol>
  <symbol id="f" overflow="visible">
   <path d="m19.953-20.422v-12.812h7.6875v33.234h-7.6875v-3.4531c-1.0547 1.4062-2.2148 2.4375-3.4844 3.0938-1.2734 0.65625-2.7422 0.98438-4.4062 0.98438-2.9492 0-5.3711-1.1719-7.2656-3.5156-1.8867-2.3438-2.8281-5.3594-2.8281-9.0469s0.94141-6.7031 2.8281-9.0469c1.8945-2.3438 4.3164-3.5156 7.2656-3.5156 1.6562 0 3.1172 0.33594 4.3906 1 1.2812 0.65625 2.4453 1.6836 3.5 3.0781zm-5.0469 15.484c1.6445 0 2.8945-0.59766 3.75-1.7969 0.86328-1.1953 1.2969-2.9297 1.2969-5.2031 0-2.2812-0.43359-4.0195-1.2969-5.2188-0.85547-1.1953-2.1055-1.7969-3.75-1.7969-1.625 0-2.8711 0.60156-3.7344 1.7969-0.85547 1.1992-1.2812 2.9375-1.2812 5.2188 0 2.2734 0.42578 4.0078 1.2812 5.2031 0.86328 1.1992 2.1094 1.7969 3.7344 1.7969z"/>
  </symbol>
  <symbol id="e" overflow="visible">
   <path d="m16.406-4.9375c1.6328 0 2.8828-0.59766 3.75-1.7969 0.86328-1.1953 1.2969-2.9297 1.2969-5.2031 0-2.2812-0.43359-4.0195-1.2969-5.2188-0.86719-1.1953-2.1172-1.7969-3.75-1.7969-1.6367 0-2.8906 0.60547-3.7656 1.8125-0.875 1.1992-1.3125 2.9336-1.3125 5.2031 0 2.2617 0.4375 3.9961 1.3125 5.2031 0.875 1.1992 2.1289 1.7969 3.7656 1.7969zm-5.0781-15.484c1.0508-1.3945 2.2188-2.4219 3.5-3.0781 1.2812-0.66406 2.7539-1 4.4219-1 2.9453 0 5.3672 1.1719 7.2656 3.5156 1.8945 2.3438 2.8438 5.3594 2.8438 9.0469s-0.94922 6.7031-2.8438 9.0469c-1.8984 2.3438-4.3203 3.5156-7.2656 3.5156-1.668 0-3.1406-0.33594-4.4219-1s-2.4492-1.6914-3.5-3.0781v3.4531h-7.6562v-33.234h7.6562z"/>
  </symbol>
  <symbol id="a" overflow="visible">
   <path d="m0.53125-23.922h7.6562l6.4219 16.234 5.4688-16.234h7.6562l-10.062 26.188c-1.0117 2.6641-2.1953 4.5234-3.5469 5.5781-1.3438 1.0625-3.1211 1.5938-5.3281 1.5938h-4.4219v-5.0156h2.3906c1.3008 0 2.2422-0.21094 2.8281-0.625 0.59375-0.40625 1.0547-1.1484 1.3906-2.2188l0.20312-0.65625z"/>
  </symbol>
  <symbol id="d" overflow="visible">
   <path d="m4.0156-31.891h22.203v6.2188h-13.984v5.9375h13.141v6.2188h-13.141v7.2969h14.453v6.2188h-22.672z"/>
  </symbol>
  <symbol id="l" overflow="visible">
   <path d="m3.4219-9.3125v-14.609h7.6875v2.3906c0 1.293-0.011719 2.918-0.03125 4.875-0.011719 1.9609-0.015625 3.2656-0.015625 3.9219 0 1.9297 0.046875 3.3125 0.14062 4.1562 0.10156 0.84375 0.28125 1.4609 0.53125 1.8438 0.3125 0.5 0.71875 0.88672 1.2188 1.1562 0.50781 0.27344 1.0938 0.40625 1.75 0.40625 1.5938 0 2.8438-0.60938 3.75-1.8281 0.91406-1.2266 1.375-2.9297 1.375-5.1094v-11.812h7.6406v23.922h-7.6406v-3.4531c-1.1562 1.3867-2.3828 2.4141-3.6719 3.0781-1.2812 0.66406-2.6992 1-4.25 1-2.7734 0-4.8828-0.84766-6.3281-2.5469-1.4375-1.6953-2.1562-4.1602-2.1562-7.3906z"/>
  </symbol>
  <symbol id="k" overflow="visible">
   <path d="m23-23.172v6.2344c-1.0312-0.71875-2.0742-1.2422-3.125-1.5781-1.043-0.34375-2.125-0.51562-3.25-0.51562-2.1367 0-3.8047 0.625-5 1.875-1.1875 1.2422-1.7812 2.9805-1.7812 5.2188 0 2.2305 0.59375 3.9688 1.7812 5.2188 1.1953 1.25 2.8633 1.875 5 1.875 1.1953 0 2.332-0.17578 3.4062-0.53125 1.0703-0.36328 2.0625-0.89453 2.9688-1.5938v6.2656c-1.1875 0.4375-2.4023 0.76562-3.6406 0.98438-1.2305 0.22656-2.4648 0.34375-3.7031 0.34375-4.3125 0-7.6875-1.1094-10.125-3.3281s-3.6562-5.2969-3.6562-9.2344c0-3.9453 1.2188-7.0234 3.6562-9.2344 2.4375-2.2188 5.8125-3.3281 10.125-3.3281 1.25 0 2.4844 0.10938 3.7031 0.32812s2.4297 0.55469 3.6406 1z"/>
  </symbol>
  <symbol id="j" overflow="visible">
   <path d="m3.6719-33.234h7.6562v33.234h-7.6562z"/>
  </symbol>
  <symbol id="i" overflow="visible">
   <path d="m11.328-3.4531v12.547h-7.6562v-33.016h7.6562v3.5c1.0508-1.3945 2.2188-2.4219 3.5-3.0781 1.2812-0.66406 2.7539-1 4.4219-1 2.9453 0 5.3672 1.1719 7.2656 3.5156 1.8945 2.3438 2.8438 5.3594 2.8438 9.0469s-0.94922 6.7031-2.8438 9.0469c-1.8984 2.3438-4.3203 3.5156-7.2656 3.5156-1.668 0-3.1406-0.33594-4.4219-1s-2.4492-1.6914-3.5-3.0781zm5.0781-15.5c-1.6367 0-2.8906 0.60547-3.7656 1.8125-0.875 1.1992-1.3125 2.9336-1.3125 5.2031 0 2.2617 0.4375 3.9961 1.3125 5.2031 0.875 1.1992 2.1289 1.7969 3.7656 1.7969 1.6328 0 2.8828-0.59766 3.75-1.7969 0.86328-1.1953 1.2969-2.9297 1.2969-5.2031 0-2.2812-0.43359-4.0195-1.2969-5.2188-0.86719-1.1953-2.1172-1.7969-3.75-1.7969z"/>
  </symbol>
 </defs>
 <g>
  <path d="m385 306.25c19.301 0 35-15.699 35-35s-15.699-35-35-35-35 15.699-35 35 15.699 35 35 35zm0-52.5c9.6523 0 17.5 7.8477 17.5 17.5s-7.8477 17.5-17.5 17.5-17.5-7.8477-17.5-17.5 7.8477-17.5 17.5-17.5z"/>
  <path d="m488.14 230.44c-1.1211-2.0469-2.2148-4.1133-3.4219-6.1094 26.637-74.875 33.52-139.63 1.6641-158.38-19.801-11.637-48.617-1.793-83.879 28.422v-68.129h17.5v-17.5h-140v17.5h17.5v68.152c-35.289-30.238-64.102-40.094-83.902-28.445-20.309 11.934-26.066 44.16-16.652 93.188l17.195-3.2969c-7.5508-39.332-4.4453-67.297 8.3281-74.805 13.992-8.2344 41.922 5.5898 75.031 36.953v39.727c-28.062 9.8789-51.895 27.047-69.754 48.973-3.8242-11.645-7.2031-22.996-9.8594-33.793l-16.984 4.1914c3.6758 14.945 8.5938 30.828 14.395 47.234-1.207 1.9961-2.3008 4.0586-3.4219 6.1094-84.633 15.488-133.12 43.008-133.12 75.812 0 36.426 57.434 62.082 133.28 75.828 1.0508 1.8984 2.25 3.6836 3.3672 5.5312-29.848 84.086-30.59 141.91-1.8008 158.83 5.3477 3.1406 11.41 4.7148 18.121 4.7148 4.2695 0 8.8203-0.64062 13.605-1.9258 28.664-7.6836 66-39.129 104.16-85.516 0.17578 0.011718 0.33984 0.039062 0.51562 0.039062 0.16797 0 0.32422-0.027344 0.48828-0.027344 38.168 46.383 75.496 77.832 104.16 85.504 4.7852 1.2773 9.3281 1.9258 13.605 1.9258 6.7188 0 12.773-1.5742 18.121-4.7148 28.77-16.93 28.043-74.742-1.793-158.8 1.1367-1.8633 2.3438-3.6758 3.4023-5.5898 17.211-3.1602 33.477-6.8516 48.238-11.191l-4.9336-16.781c-10.691 3.1406-22.262 5.9219-34.344 8.4258 6.7148-17.5 10.555-36.418 10.555-56.254 0-19.73-3.6836-38.691-10.344-56.254 73.449 15.172 106.59 38.691 106.59 56.254 0 14.27-20.211 29.699-55.449 42.305l5.8984 16.477c43.871-15.703 67.051-36.023 67.051-58.781 0-32.805-48.492-60.324-133.11-75.809zm-10.633-149.39c18.164 10.676 16.922 58.652-5.1719 125.75-17.867-21.961-41.73-39.172-69.832-49.07v-39.75c33.082-31.324 61.031-45.168 75.004-36.926zm-168.68 91.375 6.1758-1.8984v-144.28h70v144.28l6.1758 1.8984c14.883 4.5781 28.535 11.418 40.637 20.074h-163.62c12.102-8.6523 25.75-15.496 40.637-20.074zm22.066 37.574c-3.6211 10.16-13.246 17.5-24.641 17.5-11.391 0-21.016-7.3398-24.641-17.5zm-82.652 0h15.156c4.0703 19.941 21.734 35 42.867 35 21.133 0 38.797-15.059 42.867-35h102.63c4.9609 5.2344 9.4922 10.832 13.578 16.766-12.941 34.949-31.012 74.148-54.418 115.41-6.4219 11.324-13.027 22.312-19.723 33.016-13.516 0.64453-27.242 1.0547-41.199 1.0547-14.148 0-27.895-0.33203-41.188-0.96094-4.7852-7.6484-9.5039-15.488-14.156-23.457 12.188-7.7734 20.344-21.336 20.344-36.832 0-24.125-19.625-43.75-43.75-43.75-5.9336 0-11.586 1.207-16.758 3.3594-7.4453-16.344-14.016-32.375-19.773-47.949 4.0703-5.8906 8.582-11.453 13.52-16.66zm131.38 183.21c-9.7812 14.777-19.703 28.707-29.637 41.719-9.9297-13.012-19.855-26.934-29.637-41.719 9.8906 0.34375 19.797 0.53516 29.656 0.53516 9.9766 0 19.836-0.21094 29.617-0.53516zm-131.29-90.754c6.2578 12.785 12.992 25.645 20.074 38.5-13.125-1.4453-23.406-12.461-23.406-25.961 0-4.5586 1.2773-8.793 3.332-12.539zm13.688-11.953c2.8867-1.0859 5.9766-1.7578 9.2305-1.7578 14.473 0 26.25 11.777 26.25 26.25 0 9.0039-4.5586 16.949-11.488 21.684-8.6016-15.438-16.617-30.871-23.992-46.176zm-22.156-5.8633c-7.6211 7.875-12.363 18.559-12.363 30.355 0 24.125 19.625 43.75 43.75 43.75 2.3281 0 4.5586-0.33203 6.7891-0.68359 3.1133 5.3711 6.2383 10.691 9.4141 15.926-22.848-1.6797-44.16-4.2344-63.629-7.4883-8.7656-18.281-13.824-38.668-13.824-60.254 0-21.375 4.8398-41.73 13.477-60.043 4.9766 12.609 10.395 25.43 16.387 38.438zm-143.61 21.605c0-17.562 33.145-41.082 106.59-56.254-6.6602 17.562-10.344 36.523-10.344 56.254 0 19.891 3.8594 38.859 10.613 56.395-66.5-13.73-106.86-35.789-106.86-56.395zm202.55 85.953c12.223 19.094 24.734 36.941 37.266 53.34-41.879-4.1562-78.34-26.871-101.14-59.762 20.543 2.9648 42.051 5.1172 63.875 6.4219zm-57.996 140.13c-7.6055 2.0195-13.766 1.6992-18.332-0.98047-15.594-9.1602-19.336-51.477 5.3008-125.96 24.535 30.195 60.023 51.02 100.34 56.664-32.715 38.168-63.918 64.016-87.305 70.281zm236.7-0.98047c-4.5586 2.6875-10.734 3.0117-18.332 0.98047-23.391-6.2656-54.59-32.113-87.309-70.281 40.312-5.6445 75.801-26.453 100.34-56.641 24.625 74.477 20.891 116.77 5.3047 125.94zm-113.6-85.809c12.52-16.379 25.008-34.211 37.223-53.277 22.234-1.3047 43.617-3.5273 63.938-6.4648-22.801 32.879-59.273 55.594-101.16 59.742zm48.676-71.656c4.5859-7.5508 9.125-15.215 13.578-23.074 19.301-34.027 36.645-70.008 50.348-104.64 8.6562 18.324 13.496 38.691 13.496 60.078 0 21.535-5.0312 41.879-13.754 60.121-20.004 3.3516-41.371 5.8633-63.668 7.5156z"/>
  
 </g>
</svg>
