<?xml version="1.0" encoding="UTF-8"?>
<svg width="700pt" height="700pt" version="1.1" viewBox="0 0 700 700" xmlns="http://www.w3.org/2000/svg" xmlns:xlink="http://www.w3.org/1999/xlink">
 <defs>
  <symbol id="m" overflow="visible">
   <path d="m29.312-1.75c-1.5117 0.78125-3.0898 1.3711-4.7344 1.7656-1.6367 0.40625-3.3398 0.60938-5.1094 0.60938-5.3125 0-9.5273-1.4844-12.641-4.4531-3.1055-2.9688-4.6562-7-4.6562-12.094s1.5508-9.125 4.6562-12.094c3.1133-2.9688 7.3281-4.4531 12.641-4.4531 1.7695 0 3.4727 0.19922 5.1094 0.59375 1.6445 0.39844 3.2227 0.99219 4.7344 1.7812v6.5938c-1.5312-1.0391-3.0391-1.8008-4.5156-2.2812-1.4805-0.48828-3.0391-0.73438-4.6719-0.73438-2.9375 0-5.2461 0.94531-6.9219 2.8281-1.6797 1.875-2.5156 4.4648-2.5156 7.7656 0 3.293 0.83594 5.8828 2.5156 7.7656 1.6758 1.875 3.9844 2.8125 6.9219 2.8125 1.6328 0 3.1914-0.23828 4.6719-0.71875 1.4766-0.48828 2.9844-1.2539 4.5156-2.2969z"/>
  </symbol>
  <symbol id="c" overflow="visible">
   <path d="m21.453-17.406c-0.67969-0.3125-1.3516-0.53906-2.0156-0.6875-0.65625-0.15625-1.3203-0.23438-1.9844-0.23438-1.9688 0-3.4844 0.63281-4.5469 1.8906-1.0547 1.2617-1.5781 3.0703-1.5781 5.4219v11.016h-7.6562v-23.922h7.6562v3.9219c0.97656-1.5625 2.1016-2.7031 3.375-3.4219 1.2812-0.71875 2.8125-1.0781 4.5938-1.0781 0.25 0 0.52344 0.011719 0.82812 0.03125 0.30078 0.023438 0.73438 0.070312 1.2969 0.14062z"/>
  </symbol>
  <symbol id="b" overflow="visible">
   <path d="m27.562-12.031v2.1875h-17.891c0.1875 1.793 0.83203 3.1367 1.9375 4.0312 1.1133 0.89844 2.6719 1.3438 4.6719 1.3438 1.6016 0 3.25-0.23438 4.9375-0.70312 1.6875-0.47656 3.4219-1.2031 5.2031-2.1719v5.8906c-1.8047 0.6875-3.6094 1.2031-5.4219 1.5469-1.8125 0.35156-3.6211 0.53125-5.4219 0.53125-4.3359 0-7.7031-1.0977-10.109-3.2969-2.3984-2.207-3.5938-5.2969-3.5938-9.2656 0-3.9062 1.1758-6.9727 3.5312-9.2031 2.3633-2.2383 5.6094-3.3594 9.7344-3.3594 3.7578 0 6.7695 1.1367 9.0312 3.4062 2.2578 2.2617 3.3906 5.2812 3.3906 9.0625zm-7.8594-2.5312c0-1.457-0.42969-2.6289-1.2812-3.5156-0.84375-0.89453-1.9492-1.3438-3.3125-1.3438-1.4922 0-2.6992 0.41797-3.625 1.25-0.91797 0.83594-1.4922 2.0391-1.7188 3.6094z"/>
  </symbol>
  <symbol id="d" overflow="visible">
   <path d="m14.391-10.766c-1.5938 0-2.793 0.27344-3.5938 0.8125-0.80469 0.54297-1.2031 1.3398-1.2031 2.3906 0 0.96875 0.32031 1.7305 0.96875 2.2812 0.64453 0.54297 1.5469 0.8125 2.7031 0.8125 1.4375 0 2.6445-0.51562 3.625-1.5469 0.98828-1.0312 1.4844-2.3203 1.4844-3.875v-0.875zm11.688-2.8906v13.656h-7.7031v-3.5469c-1.0312 1.4492-2.1875 2.5078-3.4688 3.1719s-2.8398 1-4.6719 1c-2.4805 0-4.4961-0.72266-6.0469-2.1719-1.543-1.4453-2.3125-3.3203-2.3125-5.625 0-2.8125 0.96094-4.8672 2.8906-6.1719 1.9375-1.3125 4.9688-1.9688 9.0938-1.9688h4.5156v-0.60938c0-1.207-0.48047-2.0938-1.4375-2.6562-0.94922-0.5625-2.4375-0.84375-4.4688-0.84375-1.6367 0-3.1562 0.16797-4.5625 0.5-1.4062 0.32422-2.7188 0.8125-3.9375 1.4688v-5.8281c1.6445-0.40625 3.2891-0.70703 4.9375-0.90625 1.6562-0.20703 3.3047-0.3125 4.9531-0.3125 4.3203 0 7.4375 0.85547 9.3438 2.5625 1.9141 1.6992 2.875 4.4609 2.875 8.2812z"/>
  </symbol>
  <symbol id="a" overflow="visible">
   <path d="m12.031-30.719v6.7969h7.875v5.4688h-7.875v10.141c0 1.1172 0.21875 1.8711 0.65625 2.2656 0.4375 0.38672 1.3125 0.57812 2.625 0.57812h3.9375v5.4688h-6.5625c-3.0234 0-5.1641-0.62891-6.4219-1.8906-1.2617-1.2578-1.8906-3.3984-1.8906-6.4219v-10.141h-3.7969v-5.4688h3.7969v-6.7969z"/>
  </symbol>
  <symbol id="i" overflow="visible">
   <path d="m19.953-20.422v-12.812h7.6875v33.234h-7.6875v-3.4531c-1.0547 1.4062-2.2148 2.4375-3.4844 3.0938-1.2734 0.65625-2.7422 0.98438-4.4062 0.98438-2.9492 0-5.3711-1.1719-7.2656-3.5156-1.8867-2.3438-2.8281-5.3594-2.8281-9.0469s0.94141-6.7031 2.8281-9.0469c1.8945-2.3438 4.3164-3.5156 7.2656-3.5156 1.6562 0 3.1172 0.33594 4.3906 1 1.2812 0.65625 2.4453 1.6836 3.5 3.0781zm-5.0469 15.484c1.6445 0 2.8945-0.59766 3.75-1.7969 0.86328-1.1953 1.2969-2.9297 1.2969-5.2031 0-2.2812-0.43359-4.0195-1.2969-5.2188-0.85547-1.1953-2.1055-1.7969-3.75-1.7969-1.625 0-2.8711 0.60156-3.7344 1.7969-0.85547 1.1992-1.2812 2.9375-1.2812 5.2188 0 2.2734 0.42578 4.0078 1.2812 5.2031 0.86328 1.1992 2.1094 1.7969 3.7344 1.7969z"/>
  </symbol>
  <symbol id="h" overflow="visible">
   <path d="m16.406-4.9375c1.6328 0 2.8828-0.59766 3.75-1.7969 0.86328-1.1953 1.2969-2.9297 1.2969-5.2031 0-2.2812-0.43359-4.0195-1.2969-5.2188-0.86719-1.1953-2.1172-1.7969-3.75-1.7969-1.6367 0-2.8906 0.60547-3.7656 1.8125-0.875 1.1992-1.3125 2.9336-1.3125 5.2031 0 2.2617 0.4375 3.9961 1.3125 5.2031 0.875 1.1992 2.1289 1.7969 3.7656 1.7969zm-5.0781-15.484c1.0508-1.3945 2.2188-2.4219 3.5-3.0781 1.2812-0.66406 2.7539-1 4.4219-1 2.9453 0 5.3672 1.1719 7.2656 3.5156 1.8945 2.3438 2.8438 5.3594 2.8438 9.0469s-0.94922 6.7031-2.8438 9.0469c-1.8984 2.3438-4.3203 3.5156-7.2656 3.5156-1.668 0-3.1406-0.33594-4.4219-1s-2.4492-1.6914-3.5-3.0781v3.4531h-7.6562v-33.234h7.6562z"/>
  </symbol>
  <symbol id="g" overflow="visible">
   <path d="m0.53125-23.922h7.6562l6.4219 16.234 5.4688-16.234h7.6562l-10.062 26.188c-1.0117 2.6641-2.1953 4.5234-3.5469 5.5781-1.3438 1.0625-3.1211 1.5938-5.3281 1.5938h-4.4219v-5.0156h2.3906c1.3008 0 2.2422-0.21094 2.8281-0.625 0.59375-0.40625 1.0547-1.1484 1.3906-2.2188l0.20312-0.65625z"/>
  </symbol>
  <symbol id="f" overflow="visible">
   <path d="m0.21875-31.891h8.2656l8.4531 23.531 8.4375-23.531h8.2656l-11.812 31.891h-9.7969z"/>
  </symbol>
  <symbol id="l" overflow="visible">
   <path d="m23-23.172v6.2344c-1.0312-0.71875-2.0742-1.2422-3.125-1.5781-1.043-0.34375-2.125-0.51562-3.25-0.51562-2.1367 0-3.8047 0.625-5 1.875-1.1875 1.2422-1.7812 2.9805-1.7812 5.2188 0 2.2305 0.59375 3.9688 1.7812 5.2188 1.1953 1.25 2.8633 1.875 5 1.875 1.1953 0 2.332-0.17578 3.4062-0.53125 1.0703-0.36328 2.0625-0.89453 2.9688-1.5938v6.2656c-1.1875 0.4375-2.4023 0.76562-3.6406 0.98438-1.2305 0.22656-2.4648 0.34375-3.7031 0.34375-4.3125 0-7.6875-1.1094-10.125-3.3281s-3.6562-5.2969-3.6562-9.2344c0-3.9453 1.2188-7.0234 3.6562-9.2344 2.4375-2.2188 5.8125-3.3281 10.125-3.3281 1.25 0 2.4844 0.10938 3.7031 0.32812s2.4297 0.55469 3.6406 1z"/>
  </symbol>
  <symbol id="e" overflow="visible">
   <path d="m15.062-19.031c-1.6992 0-2.9961 0.60938-3.8906 1.8281-0.88672 1.2188-1.3281 2.9766-1.3281 5.2656 0 2.293 0.44141 4.0469 1.3281 5.2656 0.89453 1.2188 2.1914 1.8281 3.8906 1.8281 1.6641 0 2.9375-0.60938 3.8125-1.8281 0.88281-1.2188 1.3281-2.9727 1.3281-5.2656 0-2.2891-0.44531-4.0469-1.3281-5.2656-0.875-1.2188-2.1484-1.8281-3.8125-1.8281zm0-5.4688c4.1133 0 7.3281 1.1094 9.6406 3.3281s3.4688 5.2969 3.4688 9.2344c0 3.9297-1.1562 7.0078-3.4688 9.2344-2.3125 2.2188-5.5273 3.3281-9.6406 3.3281-4.1367 0-7.3711-1.1094-9.7031-3.3281-2.3242-2.2266-3.4844-5.3047-3.4844-9.2344 0-3.9375 1.1602-7.0156 3.4844-9.2344 2.332-2.2188 5.5664-3.3281 9.7031-3.3281z"/>
  </symbol>
  <symbol id="k" overflow="visible">
   <path d="m4.0156-31.891h13.656c4.0508 0 7.1602 0.90234 9.3281 2.7031 2.1758 1.8047 3.2656 4.3711 3.2656 7.7031 0 3.3438-1.0898 5.918-3.2656 7.7188-2.168 1.8047-5.2773 2.7031-9.3281 2.7031h-5.4375v11.062h-8.2188zm8.2188 5.9531v8.9062h4.5625c1.5938 0 2.8203-0.38281 3.6875-1.1562 0.875-0.78125 1.3125-1.8789 1.3125-3.2969 0-1.4258-0.4375-2.5234-1.3125-3.2969-0.86719-0.76953-2.0938-1.1562-3.6875-1.1562z"/>
  </symbol>
  <symbol id="j" overflow="visible">
   <path d="m3.6719-33.234h7.6562v33.234h-7.6562z"/>
  </symbol>
 </defs>
 <g>
  <path d="m189.88 336.35c-25.457-43.156-34.762-93.949-26.25-143.33 0.82031-4.832-2.4297-9.4141-7.2617-10.234-4.832-0.82422-9.418 2.4297-10.238 7.2617-9.1016 53.586 1.1328 108.66 28.875 155.4 1.5898 2.6836 4.4922 4.3203 7.6133 4.2891 1.5781-0.027343 3.1211-0.48047 4.4609-1.3125 1.9766-1.2266 3.3828-3.1914 3.9062-5.457 0.52734-2.2656 0.12891-4.6484-1.1055-6.6172z"/>
  <path d="m220.41 77.523c2.2383 0.015624 4.3984-0.82813 6.0352-2.3594 29.152-27.547 65.555-46.203 104.94-53.781 39.383-7.5781 80.109-3.7656 117.4 10.992 4.5391 1.7148 9.6133-0.57812 11.328-5.1172 1.7188-4.543-0.57422-9.6172-5.1172-11.332-40.43-15.922-84.555-20.016-127.22-11.801-42.668 8.2109-82.121 28.387-113.75 58.176-1.6562 1.6406-2.5859 3.8789-2.5859 6.2109s0.92969 4.5703 2.5859 6.2148c1.6523 1.7773 3.9648 2.7891 6.3906 2.7969z"/>
  <path d="m563.15 104.39c-2.582-4.082-7.9883-5.2969-12.074-2.7109-4.082 2.5859-5.2969 7.9922-2.7109 12.074 21.473 33.207 33.191 71.773 33.828 111.31 0.63281 39.539-9.8438 78.461-30.242 112.34-2.1719 4.1562-0.68359 9.2852 3.375 11.633 4.0586 2.3477 9.2461 1.0742 11.762-2.8828 22.062-36.715 33.387-78.879 32.691-121.71-0.69531-42.824-13.387-84.602-36.629-120.58z"/>
  <path d="m335.74 407.75 14.262-23.363-21.262-33.426-29.402-18.461-36.227-12.336-45.062 18.289 0.003906-0.003906c3.4648-9.1289 7.7695-17.918 12.863-26.25v-29.836c-26.711 32.215-41.43 72.691-41.652 114.54-0.19141 23.426 4.2695 46.652 13.125 68.34h18.988c-3.2539-7.3984-5.9453-15.035-8.0508-22.84h53.551l31.414-43.75z"/>
  <path d="m552.91 398.91c0.32813-42.578-14.426-83.898-41.652-116.64v30.277c10.551 17.203 17.789 36.223 21.352 56.086l-60.113-24.676-50.488 19.512-0.78906 42.961 37.887 10.324 37.711 33.863 35-19.602 0.003907 0.003907c-2.375 11.797-6.1055 23.273-11.113 34.215h19.164c8.4922-21.09 12.914-43.594 13.039-66.324z"/>
  <path d="m500.24 495.51c0 5.1562 2.0508 10.102 5.6992 13.746 3.6484 3.6445 8.5977 5.6875 13.754 5.6797s10.098-2.0664 13.738-5.7188c3.6367-3.6562 5.6719-8.6094 5.6562-13.766-0.015626-5.1562-2.0781-10.094-5.7383-13.727-3.6602-3.6328-8.6172-5.6641-13.773-5.6406-5.1445 0-10.074 2.0508-13.703 5.6953s-5.6562 8.5859-5.6328 13.73z"/>
  <path d="m519.57 520.19c-10.559 0-20.684 4.1953-28.152 11.66-7.4648 7.4688-11.66 17.594-11.66 28.152h79.625c0-10.559-4.1953-20.684-11.66-28.152-7.4648-7.4648-17.594-11.66-28.152-11.66z"/>
  <path d="m420.61 514.85c5.1562 0 10.102-2.0508 13.746-5.7031 3.6445-3.6484 5.6875-8.5977 5.6797-13.754-0.007812-5.1562-2.0664-10.098-5.7227-13.734-3.6523-3.6406-8.6055-5.6758-13.762-5.6602s-10.098 2.082-13.73 5.7422c-3.6328 3.6602-5.6602 8.6133-5.6367 13.77 0 5.1445 2.0508 10.078 5.6953 13.707 3.6445 3.6289 8.5859 5.6562 13.73 5.6328z"/>
  <path d="m420.61 520.19c-10.559 0-20.688 4.1953-28.152 11.66-7.4648 7.4688-11.66 17.594-11.66 28.152h79.539-0.003906c0-10.543-4.1797-20.656-11.629-28.121-7.4453-7.4648-17.551-11.668-28.094-11.691z"/>
  <path d="m321.56 476.09c-5.1367 0.070312-10.035 2.1719-13.625 5.8438-3.5938 3.6719-5.582 8.6172-5.5352 13.754 0.042968 5.1367 2.125 10.047 5.7812 13.656 3.6562 3.6055 8.5898 5.6172 13.727 5.5938 5.1367-0.019532 10.055-2.0781 13.68-5.7188 3.625-3.6367 5.6602-8.5664 5.6602-13.703 0.023438-5.2031-2.0508-10.199-5.7539-13.855-3.707-3.6562-8.7305-5.6641-13.934-5.5703z"/>
  <path d="m321.56 520.19c-10.543 0.023438-20.648 4.2266-28.094 11.691-7.4492 7.4648-11.633 17.578-11.633 28.121h79.539c0-10.559-4.1953-20.684-11.66-28.152-7.4688-7.4648-17.594-11.66-28.152-11.66z"/>
  <path d="m241.94 495.51c0-5.1289-2.0391-10.047-5.6641-13.672-3.625-3.6289-8.543-5.6641-13.672-5.6641-5.1289 0-10.047 2.0352-13.676 5.6641-3.625 3.625-5.6641 8.543-5.6641 13.672 0 5.1289 2.0391 10.047 5.6641 13.676 3.6289 3.625 8.5469 5.6641 13.676 5.6641 5.1289 0 10.047-2.0391 13.672-5.6641 3.625-3.6289 5.6641-8.5469 5.6641-13.676z"/>
  <path d="m222.6 520.19c-10.559 0-20.688 4.1953-28.152 11.66-7.4688 7.4688-11.66 17.594-11.66 28.152h79.711c0-10.574-4.207-20.715-11.691-28.184s-17.633-11.652-28.207-11.629z"/>
  <path d="m519.14 79.188c-13.215 3.1641-26.684 5.1562-40.25 5.9492h-1.3125c3.1797 3.9023 6.9609 7.2695 11.199 9.9766 7.4336 4.7031 16.055 7.1914 24.852 7.1758 3.5039 0.019532 6.9961-0.36328 10.414-1.1406 8.4609-1.918 16.223-6.1641 22.406-12.254 6.1836-6.0898 10.543-13.785 12.594-22.219l-1.3984 0.52344h-0.003906c-12.449 5.1406-25.332 9.1523-38.5 11.988z"/>
  <path d="m438.29 72.801c1.9258 8.3125 12.512 12.602 31.238 12.602h8.0508l-0.003906-0.003906c-3.2188-3.8945-5.7617-8.3008-7.5234-13.035-6.1953 0.51953-12.43-0.28516-18.289-2.3633 4.293-4.6406 9.5898-8.2305 15.488-10.5 0.11328 2.1836 0.43359 4.3516 0.96094 6.4766 0.42969 2.1211 1.043 4.1992 1.8398 6.2109h8.0508c12.867-0.80078 25.633-2.7617 38.148-5.8633 12.453-2.7148 24.656-6.4609 36.488-11.199l7.2617-3.3242c-0.14844-2.1523-0.47266-4.2891-0.96094-6.3867-0.45703-2.1836-1.1016-4.3203-1.9258-6.3906 6.2695-0.40625 12.555 0.48828 18.461 2.625-4.4023 4.4609-9.7148 7.9219-15.574 10.152 0.42188 5.0156 0.039062 10.066-1.1367 14.961 22.137-8.75 32.289-18.551 30.102-28.176-2.1914-9.625-15.141-13.824-39.027-12.336-3.1562-3.8945-6.9414-7.2383-11.199-9.8867-10.469-6.6016-23.121-8.7969-35.199-6.1055-12.078 2.6875-22.605 10.039-29.289 20.453-2.7188 4.2461-4.6992 8.9219-5.8633 13.828-22.223 9.0977-32.258 18.52-30.098 28.262z"/>
  <path d="m420 303.36v-155.84h-13.477v-18.547h-29.223v-21.613c0.21094-1.7656-0.34375-3.5352-1.5234-4.8594-1.1797-1.3281-2.8711-2.0898-4.6445-2.0898-1.7773 0-3.4688 0.76172-4.6484 2.0898-1.1797 1.3242-1.7305 3.0938-1.5234 4.8594v21.613h-29.223v18.551l-13.914-0.003906v155.84h32.988v-39.113h32.727v39.113zm-63-65.977h-14.789c-1.5234 0.023437-2.9922-0.56641-4.0781-1.6328-1.0859-1.0703-1.6953-2.5312-1.6953-4.0547 0-1.5156 0.61328-2.9688 1.7031-4.0234 1.0859-1.0547 2.5547-1.625 4.0703-1.5742h15.141c1.5156-0.050781 2.9844 0.51953 4.0703 1.5742 1.0898 1.0547 1.7031 2.5078 1.7031 4.0234 0 1.5234-0.60938 2.9844-1.6953 4.0547-1.0859 1.0664-2.5547 1.6562-4.0781 1.6328zm0-29.574h-14.789c-1.6406 0.20312-3.293-0.30859-4.5312-1.4023-1.2422-1.0977-1.9531-2.6719-1.9531-4.3281s0.71094-3.2305 1.9531-4.3281c1.2383-1.0977 2.8906-1.6055 4.5312-1.4023h15.141c1.6406-0.20312 3.293 0.30469 4.5312 1.4023 1.2422 1.0977 1.9531 2.6719 1.9531 4.3281s-0.71094 3.2305-1.9531 4.3281c-1.2383 1.0938-2.8906 1.6055-4.5312 1.4023zm0-29.75h-14.789c-3.1406 0-5.6875-2.5469-5.6875-5.6875s2.5469-5.6875 5.6875-5.6875h15.141c3.1406 0 5.6875 2.5469 5.6875 5.6875s-2.5469 5.6875-5.6875 5.6875zm28-11.375h15.227c3.1406 0 5.6875 2.5469 5.6875 5.6875s-2.5469 5.6875-5.6875 5.6875h-15.227c-3.1406 0-5.6875-2.5469-5.6875-5.6875s2.5469-5.6875 5.6875-5.6875zm0 29.664h15.227c1.6406-0.20312 3.293 0.30469 4.5312 1.4023 1.2422 1.0977 1.9531 2.6719 1.9531 4.3281s-0.71094 3.2305-1.9531 4.3281c-1.2383 1.0938-2.8906 1.6055-4.5312 1.4023h-15.227c-2.8945-0.35938-5.0664-2.8164-5.0664-5.7305 0-2.9141 2.1719-5.375 5.0664-5.7305zm0 41.039v-0.003906c-3.1406 0-5.6875-2.5469-5.6875-5.6875 0-1.5 0.60156-2.9375 1.6719-3.9922 1.0664-1.0508 2.5156-1.6289 4.0156-1.6055h15.227c1.5078-0.023437 2.9609 0.55078 4.0469 1.6016 1.082 1.0508 1.7031 2.4883 1.7266 3.9961-0.046875 3.1562-2.6211 5.6875-5.7734 5.6875z"/>
  <path d="m242.46 303.36h70.613v-111.48h-70.613zm26.25-90.211h17.5v-0.003906c1.4922-0.023438 2.9336 0.55859 3.9883 1.6172 1.0547 1.0547 1.6367 2.4922 1.6133 3.9844 0.023438 1.5-0.55469 2.9492-1.6094 4.0156-1.0508 1.0703-2.4883 1.6719-3.9922 1.6719h-17.5c-1.5156 0.023438-2.9727-0.56641-4.0469-1.6406-1.0703-1.0703-1.6641-2.5312-1.6406-4.0469-0.023438-1.5234 0.58203-2.9922 1.6758-4.0508 1.0938-1.0625 2.5781-1.6211 4.1016-1.5508zm0 29.664h17.5v-0.003906c3.1445 0 5.6875 2.5469 5.6875 5.6875s-2.543 5.6875-5.6875 5.6875h-17.5c-3.1406 0-5.6875-2.5469-5.6875-5.6875s2.5469-5.6875 5.6875-5.6875zm0 29.664h17.5v-0.003907c3.1445 0 5.6875 2.543 5.6875 5.6875 0 3.1406-2.543 5.6875-5.6875 5.6875h-17.5c-3.1406 0-5.6875-2.5469-5.6875-5.6875 0-3.1445 2.5469-5.6875 5.6875-5.6875z"/>
  <path d="m499.98 191.89h-70.789v111.48h70.789zm-26.25 91.961h-17.5v0.003906c-3.1445 0-5.6875-2.5469-5.6875-5.6875 0-3.1445 2.543-5.6875 5.6875-5.6875h17.5c3.1406 0 5.6875 2.543 5.6875 5.6875 0 3.1406-2.5469 5.6875-5.6875 5.6875zm0-29.664h-17.5v0.003906c-3.1445 0-5.6875-2.5469-5.6875-5.6875s2.543-5.6875 5.6875-5.6875h17.5c3.1406 0 5.6875 2.5469 5.6875 5.6875s-2.5469 5.6875-5.6875 5.6875zm0-29.75h-17.5v0.003906c-1.5234 0.023438-2.9961-0.56641-4.0781-1.6328-1.0859-1.0703-1.6992-2.5312-1.6992-4.0547 0-1.5156 0.61328-2.9688 1.7031-4.0234 1.0859-1.0547 2.5586-1.625 4.0742-1.5781h17.5c1.5-0.023438 2.9453 0.55859 4.0156 1.6094 1.0703 1.0547 1.6719 2.4922 1.6719 3.9922 0 1.5547-0.63672 3.043-1.7578 4.1172-1.125 1.0742-2.6406 1.6406-4.1953 1.5703z"/>
  <path d="m165.64 171.24c12.008 2.6328 24.57 0.46875 35-6.0391 4.2695-2.7031 8.082-6.0703 11.289-9.9727h-1.0508c-13.559-0.80859-27.023-2.7695-40.25-5.8633-13.18-2.8867-26.09-6.8984-38.586-11.988l-1.3984-0.52344h-0.003906c2.043 8.4258 6.4062 16.113 12.59 22.188 6.1875 6.0781 13.949 10.305 22.41 12.199z"/>
  <path d="m129.41 121.8c-5.8438-2.2734-11.168-5.6953-15.664-10.062 5.9375-2.1445 12.25-3.0352 18.551-2.625-0.82422 2.0391-1.4688 4.1484-1.9258 6.3008-0.5625 2.0859-0.91406 4.2266-1.0508 6.3867 2.2734 1.1367 4.7266 2.1875 7.5234 3.3242h0.003906c11.871 4.7266 24.102 8.5 36.574 11.289 12.531 2.9414 25.297 4.7852 38.148 5.5117h7.9648c0.79688-1.9805 1.4102-4.0312 1.8359-6.125 0.52344-2.1523 0.84375-4.3516 0.96094-6.5625 5.957 2.3789 11.305 6.0586 15.664 10.762-5.8789 2.1211-12.141 2.9844-18.375 2.5391-1.7461 4.7227-4.2578 9.1289-7.4375 13.035h7.9609c18.812 0 29.398-4.1992 31.324-12.602 1.9258-8.3984-7.9609-19.074-30.188-28.262h0.003906c-1.1797-4.8984-3.1602-9.5703-5.8633-13.824-6.6094-10.492-17.113-17.93-29.203-20.688-12.09-2.7578-24.781-0.60156-35.285 5.9883-4.1758 2.7266-7.8711 6.1289-10.938 10.062-23.887-1.3984-37.188 2.8867-39.289 12.426-2.1016 9.5391 7.9609 19.074 30.188 28.262-1.3398-4.9258-1.8438-10.043-1.4844-15.137z"/>
 
  
 </g>
</svg>
