<svg id="visual" viewBox="0 0 900 600" width="900" height="600" xmlns="http://www.w3.org/2000/svg" xmlns:xlink="http://www.w3.org/1999/xlink" version="1.1"><rect x="0" y="0" width="900" height="600" fill="#ff2929"></rect><path d="M543 0L544.8 33.3C546.7 66.7 550.3 133.3 528.7 200C507 266.7 460 333.3 448.3 400C436.7 466.7 460.3 533.3 472.2 566.7L484 600L0 600L0 566.7C0 533.3 0 466.7 0 400C0 333.3 0 266.7 0 200C0 133.3 0 66.7 0 33.3L0 0Z" fill="#fc3d3d"></path><path d="M390 0L386.7 33.3C383.3 66.7 376.7 133.3 382.7 200C388.7 266.7 407.3 333.3 407 400C406.7 466.7 387.3 533.3 377.7 566.7L368 600L0 600L0 566.7C0 533.3 0 466.7 0 400C0 333.3 0 266.7 0 200C0 133.3 0 66.7 0 33.3L0 0Z" fill="#ff5753"></path><path d="M413 0L407.3 33.3C401.7 66.7 390.3 133.3 385.8 200C381.3 266.7 383.7 333.3 364.7 400C345.7 466.7 305.3 533.3 285.2 566.7L265 600L0 600L0 566.7C0 533.3 0 466.7 0 400C0 333.3 0 266.7 0 200C0 133.3 0 66.7 0 33.3L0 0Z" fill="#ff6d68"></path><path d="M338 0L338.3 33.3C338.7 66.7 339.3 133.3 318.2 200C297 266.7 254 333.3 253.7 400C253.3 466.7 295.7 533.3 316.8 566.7L338 600L0 600L0 566.7C0 533.3 0 466.7 0 400C0 333.3 0 266.7 0 200C0 133.3 0 66.7 0 33.3L0 0Z" fill="#ff817d"></path><path d="M211 0L206.2 33.3C201.3 66.7 191.7 133.3 191.7 200C191.7 266.7 201.3 333.3 199.5 400C197.7 466.7 184.3 533.3 177.7 566.7L171 600L0 600L0 566.7C0 533.3 0 466.7 0 400C0 333.3 0 266.7 0 200C0 133.3 0 66.7 0 33.3L0 0Z" fill="#ff9491"></path><path d="M142 0L144.8 33.3C147.7 66.7 153.3 133.3 154.2 200C155 266.7 151 333.3 154.7 400C158.3 466.7 169.7 533.3 175.3 566.7L181 600L0 600L0 566.7C0 533.3 0 466.7 0 400C0 333.3 0 266.7 0 200C0 133.3 0 66.7 0 33.3L0 0Z" fill="#fea7a5"></path><path d="M91 0L91.2 33.3C91.3 66.7 91.7 133.3 95.5 200C99.3 266.7 106.7 333.3 122 400C137.3 466.7 160.7 533.3 172.3 566.7L184 600L0 600L0 566.7C0 533.3 0 466.7 0 400C0 333.3 0 266.7 0 200C0 133.3 0 66.7 0 33.3L0 0Z" fill="#fbb9b8"></path><path d="M114 0L104.8 33.3C95.7 66.7 77.3 133.3 64.7 200C52 266.7 45 333.3 45 400C45 466.7 52 533.3 55.5 566.7L59 600L0 600L0 566.7C0 533.3 0 466.7 0 400C0 333.3 0 266.7 0 200C0 133.3 0 66.7 0 33.3L0 0Z" fill="#f7cbcb"></path></svg>