<svg id="visual" viewBox="0 0 900 600" width="900" height="600" xmlns="http://www.w3.org/2000/svg" xmlns:xlink="http://www.w3.org/1999/xlink" version="1.1"><rect x="0" y="0" width="900" height="600" fill="#001220"></rect><path d="M507 0L497 33.3C487 66.7 467 133.3 447 200C427 266.7 407 333.3 418.5 400C430 466.7 473 533.3 494.5 566.7L516 600L0 600L0 566.7C0 533.3 0 466.7 0 400C0 333.3 0 266.7 0 200C0 133.3 0 66.7 0 33.3L0 0Z" fill="#fc3d3d"></path><path d="M366 0L350.7 33.3C335.3 66.7 304.7 133.3 307.5 200C310.3 266.7 346.7 333.3 359.5 400C372.3 466.7 361.7 533.3 356.3 566.7L351 600L0 600L0 566.7C0 533.3 0 466.7 0 400C0 333.3 0 266.7 0 200C0 133.3 0 66.7 0 33.3L0 0Z" fill="#ff746f"></path><path d="M168 0L190.2 33.3C212.3 66.7 256.7 133.3 256.3 200C256 266.7 211 333.3 193 400C175 466.7 184 533.3 188.5 566.7L193 600L0 600L0 566.7C0 533.3 0 466.7 0 400C0 333.3 0 266.7 0 200C0 133.3 0 66.7 0 33.3L0 0Z" fill="#fea19e"></path><path d="M117 0L125.5 33.3C134 66.7 151 133.3 150.3 200C149.7 266.7 131.3 333.3 128.2 400C125 466.7 137 533.3 143 566.7L149 600L0 600L0 566.7C0 533.3 0 466.7 0 400C0 333.3 0 266.7 0 200C0 133.3 0 66.7 0 33.3L0 0Z" fill="#f7cbcb"></path></svg>