<svg id="visual" viewBox="0 0 900 600" width="900" height="600" xmlns="http://www.w3.org/2000/svg" xmlns:xlink="http://www.w3.org/1999/xlink" version="1.1"><rect x="0" y="0" width="900" height="600" fill="#001220"></rect><path d="M385 600L417.8 550C450.7 500 516.3 400 554.7 300C593 200 604 100 609.5 50L615 0L900 0L900 50C900 100 900 200 900 300C900 400 900 500 900 550L900 600Z" fill="#c62368"></path><path d="M636 600L613.8 550C591.7 500 547.3 400 564.7 300C582 200 661 100 700.5 50L740 0L900 0L900 50C900 100 900 200 900 300C900 400 900 500 900 550L900 600Z" fill="#d23467"></path><path d="M760 600L767.8 550C775.7 500 791.3 400 750.8 300C710.3 200 613.7 100 565.3 50L517 0L900 0L900 50C900 100 900 200 900 300C900 400 900 500 900 550L900 600Z" fill="#de4467"></path><path d="M805 600L792 550C779 500 753 400 744.2 300C735.3 200 743.7 100 747.8 50L752 0L900 0L900 50C900 100 900 200 900 300C900 400 900 500 900 550L900 600Z" fill="#e85467"></path><path d="M799 600L795.7 550C792.3 500 785.7 400 767.5 300C749.3 200 719.7 100 704.8 50L690 0L900 0L900 50C900 100 900 200 900 300C900 400 900 500 900 550L900 600Z" fill="#f16367"></path><path d="M801 600L801.3 550C801.7 500 802.3 400 804.8 300C807.3 200 811.7 100 813.8 50L816 0L900 0L900 50C900 100 900 200 900 300C900 400 900 500 900 550L900 600Z" fill="#fa7268"></path></svg>