<svg id="visual" viewBox="0 0 900 600" width="900" height="600" xmlns="http://www.w3.org/2000/svg" xmlns:xlink="http://www.w3.org/1999/xlink" version="1.1"><path d="M517 0L484.2 50C451.3 100 385.7 200 347.3 300C309 400 298 500 292.5 550L287 600L0 600L0 550C0 500 0 400 0 300C0 200 0 100 0 50L0 0Z" fill="#c62368"></path><path d="M266 0L288.2 50C310.3 100 354.7 200 337.3 300C320 400 241 500 201.5 550L162 600L0 600L0 550C0 500 0 400 0 300C0 200 0 100 0 50L0 0Z" fill="#d23467"></path><path d="M142 0L134.2 50C126.3 100 110.7 200 151.2 300C191.7 400 288.3 500 336.7 550L385 600L0 600L0 550C0 500 0 400 0 300C0 200 0 100 0 50L0 0Z" fill="#de4467"></path><path d="M97 0L110 50C123 100 149 200 157.8 300C166.7 400 158.3 500 154.2 550L150 600L0 600L0 550C0 500 0 400 0 300C0 200 0 100 0 50L0 0Z" fill="#e85467"></path><path d="M103 0L106.3 50C109.7 100 116.3 200 134.5 300C152.7 400 182.3 500 197.2 550L212 600L0 600L0 550C0 500 0 400 0 300C0 200 0 100 0 50L0 0Z" fill="#f16367"></path><path d="M101 0L100.7 50C100.3 100 99.7 200 97.2 300C94.7 400 90.3 500 88.2 550L86 600L0 600L0 550C0 500 0 400 0 300C0 200 0 100 0 50L0 0Z" fill="#fa7268"></path></svg>